<svg width="125" height="36" viewBox="0 0 125 36" fill="none" xmlns="http://www.w3.org/2000/svg">
<path d="M64.76 13.26C64.76 14.02 64.52 14.66 64.04 15.18C63.5733 15.7 62.92 16.06 62.08 16.26C63.0933 16.4733 63.9533 16.8933 64.66 17.52C65.3667 18.1467 65.72 18.9733 65.72 20C65.72 21.24 65.1467 22.2533 64 23.04C62.8533 23.8133 61.3267 24.2 59.42 24.2C57.5267 24.2 56.1533 23.94 55.3 23.42C54.4467 22.9 54.02 22.0733 54.02 20.94L54.04 11.94C54.04 11.2067 53.8867 10.6067 53.58 10.14C55.3 9.54 57.1067 9.24 59 9.24C60.9067 9.24 62.34 9.62 63.3 10.38C64.2733 11.1267 64.76 12.0867 64.76 13.26ZM56.64 15.7H59.16C59.1867 15.7 59.2133 15.7 59.24 15.7C60.12 15.7 60.8133 15.4867 61.32 15.06C61.8267 14.6333 62.08 14.0733 62.08 13.38C62.08 12.6867 61.8133 12.1267 61.28 11.7C60.76 11.2733 60.0267 11.06 59.08 11.06C58.1467 11.06 57.3333 11.1533 56.64 11.34V15.7ZM59.4 22.38C60.5467 22.38 61.4333 22.16 62.06 21.72C62.7 21.2667 63.02 20.6667 63.02 19.92C63.02 19.1733 62.7 18.5733 62.06 18.12C61.4333 17.6667 60.5467 17.44 59.4 17.44H56.64L56.62 21.1C56.62 21.9533 57.5467 22.38 59.4 22.38ZM69.1791 20.94V11.16C69.1791 10.5733 68.9791 10.1933 68.5791 10.02C68.9657 9.5 69.4791 9.24 70.1191 9.24C71.2257 9.24 71.7791 9.9 71.7791 11.22V20.66C71.7791 21.1533 71.8791 21.5133 72.0791 21.74C72.2924 21.9533 72.6257 22.06 73.0791 22.06H75.6191C76.4857 22.06 77.1324 21.7933 77.5591 21.26C77.9057 21.4333 78.0791 21.7667 78.0791 22.26C78.0791 22.74 77.8791 23.1533 77.4791 23.5C77.0791 23.8333 76.4924 24 75.7191 24H72.5791C71.3524 24 70.4791 23.7733 69.9591 23.32C69.4391 22.8667 69.1791 22.0733 69.1791 20.94ZM83.3988 11.22V22.26C83.3988 22.8467 83.5988 23.2333 83.9987 23.42C83.5854 23.94 83.0721 24.2 82.4588 24.2C81.3654 24.2 80.8188 23.5333 80.8188 22.2V11.16C80.8188 10.5733 80.6188 10.1933 80.2188 10.02C80.6054 9.5 81.1121 9.24 81.7388 9.24C82.8454 9.24 83.3988 9.9 83.3988 11.22ZM97.7156 12.12C97.7156 12.56 97.5823 12.9133 97.3156 13.18C97.049 13.4467 96.6823 13.58 96.2156 13.58C95.7623 13.58 95.3423 13.4533 94.9556 13.2C95.049 12.9733 95.0956 12.7333 95.0956 12.48C95.0956 12.0667 94.8756 11.7 94.4356 11.38C93.9956 11.0467 93.3756 10.88 92.5756 10.88C91.789 10.88 91.1423 11.04 90.6356 11.36C90.1423 11.6667 89.8956 12.08 89.8956 12.6C89.8956 13.12 90.1756 13.5933 90.7356 14.02C91.309 14.4333 91.9956 14.8133 92.7956 15.16C93.5956 15.5067 94.3956 15.88 95.1956 16.28C96.009 16.6667 96.6956 17.1733 97.2556 17.8C97.829 18.4133 98.1156 19.1133 98.1156 19.9C98.1156 21.1533 97.5623 22.1867 96.4556 23C95.3623 23.8 94.0356 24.2 92.4756 24.2C90.929 24.2 89.629 23.8933 88.5756 23.28C87.5223 22.6533 86.9956 21.8533 86.9956 20.88C86.9956 20.3733 87.1623 19.9667 87.4956 19.66C87.829 19.3533 88.249 19.2 88.7556 19.2C89.2623 19.2 89.7156 19.3867 90.1156 19.76C89.7956 20.08 89.6356 20.46 89.6356 20.9C89.6356 21.34 89.889 21.72 90.3956 22.04C90.9156 22.36 91.6156 22.52 92.4956 22.52C93.389 22.52 94.1156 22.32 94.6756 21.92C95.249 21.52 95.5356 21.0267 95.5356 20.44C95.5356 19.8533 95.249 19.3467 94.6756 18.92C94.1156 18.48 93.4356 18.0933 92.6356 17.76C91.8356 17.4133 91.029 17.0533 90.2156 16.68C89.4156 16.3067 88.729 15.8267 88.1556 15.24C87.5956 14.64 87.3156 13.9533 87.3156 13.18C87.3156 11.98 87.829 11.02 88.8556 10.3C89.8956 9.56667 91.1623 9.2 92.6556 9.2C94.149 9.2 95.3623 9.48 96.2956 10.04C97.2423 10.5867 97.7156 11.28 97.7156 12.12ZM111.309 12.12C111.309 12.56 111.176 12.9133 110.909 13.18C110.643 13.4467 110.276 13.58 109.809 13.58C109.356 13.58 108.936 13.4533 108.549 13.2C108.643 12.9733 108.689 12.7333 108.689 12.48C108.689 12.0667 108.469 11.7 108.029 11.38C107.589 11.0467 106.969 10.88 106.169 10.88C105.383 10.88 104.736 11.04 104.229 11.36C103.736 11.6667 103.489 12.08 103.489 12.6C103.489 13.12 103.769 13.5933 104.329 14.02C104.903 14.4333 105.589 14.8133 106.389 15.16C107.189 15.5067 107.989 15.88 108.789 16.28C109.603 16.6667 110.289 17.1733 110.849 17.8C111.423 18.4133 111.709 19.1133 111.709 19.9C111.709 21.1533 111.156 22.1867 110.049 23C108.956 23.8 107.629 24.2 106.069 24.2C104.523 24.2 103.223 23.8933 102.169 23.28C101.116 22.6533 100.589 21.8533 100.589 20.88C100.589 20.3733 100.756 19.9667 101.089 19.66C101.423 19.3533 101.843 19.2 102.349 19.2C102.856 19.2 103.309 19.3867 103.709 19.76C103.389 20.08 103.229 20.46 103.229 20.9C103.229 21.34 103.483 21.72 103.989 22.04C104.509 22.36 105.209 22.52 106.089 22.52C106.983 22.52 107.709 22.32 108.269 21.92C108.843 21.52 109.129 21.0267 109.129 20.44C109.129 19.8533 108.843 19.3467 108.269 18.92C107.709 18.48 107.029 18.0933 106.229 17.76C105.429 17.4133 104.623 17.0533 103.809 16.68C103.009 16.3067 102.323 15.8267 101.749 15.24C101.189 14.64 100.909 13.9533 100.909 13.18C100.909 11.98 101.423 11.02 102.449 10.3C103.489 9.56667 104.756 9.2 106.249 9.2C107.743 9.2 108.956 9.48 109.889 10.04C110.836 10.5867 111.309 11.28 111.309 12.12Z" fill="white"/>
<path d="M23 35.2437L19.665 32.7085C7.82 23.7391 0 17.8043 0 10.5635C0 4.62874 5.566 0 12.65 0C16.652 0 20.493 1.55572 23 3.99493C25.507 1.55572 29.348 0 33.35 0C40.434 0 46 4.62874 46 10.5635C46 17.8043 38.18 23.7391 26.335 32.7085L23 35.2437Z" fill="#E5A1B1"/>
<path d="M18.1917 20.8525C18.224 20.4767 18.2994 20.0543 18.4506 19.665C18.3755 19.9511 18.3413 20.1947 18.3039 20.4616C18.283 20.61 18.2612 20.7657 18.2307 20.9399L17.9651 21.0784C17.3768 21.3851 16.9291 21.7007 16.4824 22.0156C16.4532 22.0361 16.424 22.0567 16.3948 22.0772C15.9184 22.4126 15.4308 22.7479 14.7564 23.0797L14.7189 23.0982L14.7057 23.1378C14.4277 23.9734 14.4248 24.4879 14.5198 24.857C14.5671 25.0406 14.6374 25.1836 14.7029 25.3061C14.7147 25.3281 14.726 25.349 14.737 25.3693C14.7889 25.465 14.8317 25.5439 14.859 25.6282C15.0067 26.0837 15.0525 26.4137 15.0962 26.7276C15.099 26.7478 15.1018 26.7679 15.1046 26.788C15.1515 27.1228 15.2033 27.4465 15.3833 27.8788C15.4765 28.1025 15.5883 28.2416 15.716 28.3356C15.8345 28.4227 15.9616 28.4666 16.0766 28.5062C16.0828 28.5084 16.089 28.5105 16.0952 28.5127C16.2177 28.555 16.3308 28.5966 16.4418 28.6803C16.5519 28.7633 16.6658 28.8924 16.7764 29.1168C17.1837 29.9431 18.0197 30.217 18.6857 30.0157C19.0191 29.915 19.3109 29.6947 19.4813 29.3654C19.652 29.0357 19.6961 28.6066 19.553 28.0965C19.2706 27.0897 18.7447 26.5765 18.138 26.3457C17.7579 26.2011 17.3526 26.1699 16.9679 26.1892C17.1198 26.1444 17.2629 26.1189 17.3879 26.105C17.5247 26.0898 17.6393 26.0886 17.7191 26.0912C17.759 26.0924 17.7901 26.0947 17.8109 26.0965C17.8213 26.0974 17.8291 26.0982 17.8341 26.0988L17.8396 26.0995L17.8407 26.0996L17.8407 26.0996L17.8408 26.0996L17.8408 26.0996L18.0323 26.1259L17.943 25.9544C17.8016 25.6826 17.7442 25.4594 17.6951 25.1318C17.6776 25.0149 17.6607 24.8809 17.6411 24.7253C17.6067 24.4521 17.5639 24.1123 17.4944 23.6808C17.3742 22.9351 17.4149 22.5488 17.5326 22.2413C17.5923 22.0852 17.6733 21.9454 17.7716 21.7839C17.7839 21.7636 17.7964 21.7431 17.8092 21.7222C17.8979 21.5771 17.9977 21.4138 18.1004 21.2125L18.226 20.9665C18.2237 20.9796 18.2213 20.9928 18.2189 21.0062C18.1741 21.2508 18.0466 21.5341 17.9162 21.8236C17.9067 21.8447 17.8972 21.8658 17.8877 21.8869C17.8191 22.0397 17.7519 22.1928 17.7019 22.3361C17.6523 22.4784 17.6167 22.619 17.6167 22.7459C17.6167 23.1953 17.7804 24.5548 17.9084 25.3496C17.9831 25.8137 18.1924 26.065 18.4379 26.2727C18.5102 26.3339 18.5829 26.3897 18.6551 26.445C18.8301 26.5793 19.0022 26.7112 19.1592 26.9134L19.2667 27.0518L19.3312 26.8888C19.5952 26.2204 19.8365 25.3213 19.8096 24.6631C19.8145 24.6719 19.8192 24.681 19.8237 24.6901C19.8473 24.7389 19.8556 24.7742 19.8554 24.788C19.849 25.1676 19.7749 25.6105 19.682 26.0565C19.6368 26.2739 19.5873 26.4907 19.5395 26.7002L19.5363 26.7146C19.4876 26.928 19.4407 27.1341 19.4025 27.3232L19.3961 27.3549L19.4094 27.3843C19.6125 27.8326 19.7216 28.1913 19.7719 28.6016L19.7763 28.6367L19.8017 28.6613C20.0557 28.9071 20.3543 28.9612 20.6075 28.9443C20.8585 28.9275 21.0703 28.841 21.1648 28.799L21.2332 28.7686L21.2233 28.6944C21.1368 28.043 21.3863 27.4329 21.7635 26.9082C21.9708 26.62 22.2146 26.3605 22.457 26.138C22.4459 26.1529 22.4348 26.1678 22.4237 26.1828L22.4171 26.1916C22.2502 26.4158 22.0757 26.65 21.9176 26.8875C21.5997 27.365 21.3341 27.8745 21.3341 28.3672C21.3341 28.7283 21.4353 29.0302 21.6468 29.2532C21.8575 29.4754 22.1664 29.6075 22.5591 29.6524C22.8511 29.6858 23.0588 29.6418 23.2157 29.5343C23.3695 29.4289 23.4593 29.2721 23.5358 29.1168C23.5975 28.9913 23.6653 28.8413 23.7396 28.6767C23.7678 28.6143 23.7969 28.5498 23.827 28.4838L23.8463 28.4415L23.8264 28.3995C23.5595 27.8359 23.6482 27.4082 23.8594 27.1118C24.0759 26.8081 24.4286 26.6316 24.7006 26.5946L25.0147 26.552L24.733 26.4067C23.6741 25.8606 23.0356 25.4701 22.9005 24.6874C22.7935 24.0679 23.2935 23.4979 23.9672 23.1962L24.1207 23.1275L23.9871 23.0255C23.5298 22.6763 23.4944 22.1202 23.7967 21.6828C24.0988 21.2457 24.7477 20.9229 25.6639 21.1019C25.9478 21.1574 26.1264 21.2259 26.2956 21.2908C26.3278 21.3031 26.3596 21.3153 26.3918 21.3273L26.5449 21.3843L26.526 21.222C26.496 20.9653 26.5413 20.7533 26.6395 20.5797C26.7382 20.4052 26.8939 20.263 27.0949 20.1531C27.499 19.9322 28.0745 19.8488 28.6789 19.8971C29.3492 19.9505 29.8429 20.0856 30.0644 20.1462L30.0818 20.1509L30.1835 20.1787L30.2059 20.0757C30.2842 19.7152 30.4807 19.2036 30.7662 18.6258C30.8664 18.4229 31.0949 18.1137 31.4314 17.7176C31.7659 17.3238 32.2009 16.8509 32.7079 16.3222C33.7216 15.2649 35.0194 13.9881 36.3668 12.6807C37.002 12.0644 37.6484 11.4411 38.2813 10.8309C40.3307 8.855 42.2379 7.01623 43.1601 5.99527C43.2727 5.87056 43.3341 5.73756 43.3262 5.599C43.3184 5.46105 43.2431 5.34035 43.1315 5.23709C42.9118 5.03383 42.514 4.86361 42.0101 4.72101C40.9948 4.43374 39.4818 4.2412 37.887 4.15971C36.2912 4.07815 34.6059 4.10743 33.244 4.26675C32.5634 4.34637 31.9602 4.45885 31.4881 4.60763C31.252 4.68204 31.0462 4.7663 30.879 4.86158C30.7125 4.95645 30.5787 5.06536 30.4935 5.19159C29.2926 6.97061 28.2434 8.60684 27.3615 9.98206C27.2072 10.2227 27.058 10.4554 26.914 10.6795C25.9448 12.1874 25.2162 13.2971 24.7471 13.8306C24.4631 14.1535 24.1976 14.4846 23.9459 14.7987C23.7774 15.0089 23.6149 15.2115 23.4572 15.3988C23.0578 15.8733 22.6797 16.2615 22.2711 16.4924C21.8578 16.7258 21.2281 16.9221 20.545 17.1201C20.446 17.1488 20.3459 17.1776 20.2453 17.2064C19.6584 17.3748 19.0561 17.5477 18.5554 17.7479C18.0664 17.9434 17.5465 18.2534 16.9788 18.6081C16.8696 18.6763 16.7584 18.7463 16.6453 18.8176C16.1683 19.1181 15.6551 19.4413 15.0912 19.7555C14.5262 20.0704 14.3244 20.3764 14.2293 20.6695C14.1981 20.766 14.1779 20.8641 14.1598 20.9521C14.1521 20.9897 14.1448 21.0254 14.1371 21.0584C14.1105 21.1729 14.0775 21.2712 14.0108 21.3623C13.9087 21.4811 13.8071 21.5773 13.6925 21.6857C13.6344 21.7407 13.5729 21.7989 13.5063 21.8649C13.3105 22.0588 13.0852 22.3065 12.806 22.7089L12.7713 22.759L12.7998 22.8128C12.9592 23.1135 13.3467 23.2571 13.8006 23.2441C14.2611 23.2309 14.8194 23.0582 15.3706 22.6889C15.8724 22.3527 16.1408 22.1654 16.3489 22.0202C16.5712 21.8651 16.7246 21.758 17.0201 21.5689C17.2743 21.4062 17.5536 21.2472 17.7699 21.1286C17.8779 21.0694 17.97 21.0205 18.035 20.9863C18.0674 20.9692 18.0932 20.9559 18.1107 20.9468L18.1308 20.9365L18.1359 20.9339L18.1371 20.9332L18.1374 20.9331L18.1375 20.933L18.1375 20.933L18.187 20.9078L18.1917 20.8525ZM15.446 19.2422L15.4797 19.3523L15.584 19.3035C15.9204 19.1461 16.3008 18.9015 16.7126 18.6368C16.8761 18.5317 17.0446 18.4234 17.2172 18.3162C17.8306 17.935 18.5073 17.5587 19.2398 17.3467C19.5111 17.2681 19.7678 17.1964 20.0101 17.1287C20.5486 16.9782 21.0155 16.8477 21.4111 16.7074C21.9861 16.5036 22.4294 16.2733 22.7405 15.9143L22.8846 15.748L22.6646 15.7488C22.0697 15.751 21.6695 15.6697 21.3127 15.5828C21.3438 15.5816 21.3742 15.5805 21.404 15.5795C21.4247 15.5788 21.4452 15.5782 21.4655 15.5775C21.6435 15.5718 21.8073 15.5666 21.9786 15.5434L22.1945 15.5143L22.0316 15.3696C20.0489 13.6091 18.6634 11.732 16.1687 8.35243C15.4891 7.4317 14.7272 6.39946 13.8484 5.22768C13.6447 4.9561 13.2357 4.73167 12.7117 4.54888C12.1828 4.36434 11.5183 4.21609 10.7823 4.10815C9.31025 3.89223 7.54049 3.83586 5.97349 3.9789C5.18992 4.05043 4.45462 4.17204 3.83132 4.34959C3.20993 4.5266 2.69089 4.76169 2.34795 5.06571C2.00048 5.37375 1.83018 5.75739 1.92669 6.21333C2.02094 6.65861 2.36639 7.15458 2.99881 7.70717C7.48864 11.6303 9.88607 13.6761 11.25 14.8365C11.3456 14.9179 11.4361 14.9949 11.5219 15.0678C12.662 16.0374 12.9652 16.2953 13.2914 16.6448C13.4835 16.8506 13.6791 17.0535 13.8709 17.2524C14.1437 17.5355 14.4089 17.8105 14.6455 18.0749C15.0497 18.5264 15.3485 18.9236 15.446 19.2422ZM30.4112 20.2017L30.4133 20.2587L30.4635 20.2859C30.5291 20.3216 30.5884 20.3552 30.6484 20.3909C29.808 20.1047 29.0726 19.9465 28.4691 19.9294C27.6709 19.9068 27.0751 20.132 26.7985 20.6698C26.7065 20.8486 26.6786 21.0114 26.7076 21.1587C26.7365 21.3055 26.8194 21.4236 26.9244 21.5183C27.1299 21.7035 27.4404 21.8161 27.6809 21.8957C28.5446 22.1814 30.2422 22.7639 30.7887 22.9653C31.0585 23.0647 31.4247 23.0673 31.772 22.9694C32.1206 22.8711 32.4637 22.6677 32.6774 22.3397C32.8961 22.0041 32.8437 21.6383 32.7143 21.3455C32.5857 21.0545 32.3737 20.8161 32.2345 20.7141C31.8798 20.4542 31.2562 20.1136 30.7632 19.9018C30.7105 19.8791 30.6569 19.865 30.6054 19.8689L30.6129 19.9686L30.6054 19.8689C30.5647 19.8719 30.5266 19.8862 30.4951 19.9129C30.4646 19.9387 30.4458 19.9714 30.4341 20.0028C30.4116 20.0628 30.4088 20.1352 30.4112 20.2017ZM30.3386 26.0829L30.3612 26.0952L30.387 26.0951C30.6314 26.0935 31.0713 25.9761 31.4379 25.7597C31.8009 25.5455 32.1347 25.2068 32.0769 24.7492C32.0338 24.4084 32.0025 24.1917 31.8762 23.9912C31.7524 23.7945 31.5414 23.62 31.1715 23.3374C30.7849 23.0419 30.2284 22.8042 29.7118 22.6219C29.322 22.4843 28.9471 22.3757 28.678 22.2978C28.5898 22.2722 28.513 22.25 28.4508 22.2311C28.2004 22.1551 27.733 21.9602 27.2391 21.7541L27.2314 21.7509C26.7444 21.5476 26.235 21.335 25.9055 21.2266C25.7213 21.1661 25.5399 21.1374 25.366 21.1357C24.7589 21.1294 24.2427 21.4508 24.016 21.8757C23.902 22.0893 23.8605 22.3313 23.9226 22.569C23.9847 22.8072 24.148 23.0299 24.4233 23.2101C24.5639 23.3022 24.7216 23.3656 24.9048 23.4255C25.0066 23.4587 25.1209 23.4922 25.2467 23.529C25.3436 23.5574 25.4473 23.5878 25.5572 23.6215C26.0687 23.7787 26.7631 24.0226 27.7511 24.5393C28.2508 24.8006 28.7979 25.1321 29.2703 25.4258C29.4019 25.5076 29.528 25.5867 29.6459 25.6606C29.9483 25.8502 30.1959 26.0054 30.3386 26.0829ZM25.2603 26.566L25.2764 26.5737L25.2941 26.5754C25.7288 26.6161 26.222 26.9343 26.7224 27.3627C27.0808 27.6695 27.4308 28.0217 27.755 28.3481C27.8809 28.4747 28.0028 28.5975 28.1199 28.7122C28.3389 28.9267 28.6956 28.9635 29.0128 28.9269C29.3331 28.8899 29.6547 28.7736 29.8288 28.6338C29.8773 28.5949 29.9307 28.5537 29.9868 28.5104C30.1773 28.3633 30.3996 28.1917 30.5719 28.001C30.7968 27.752 30.9615 27.4438 30.8527 27.083C30.7514 26.7473 30.5657 26.5106 30.2819 26.2717C30.0781 26.1 29.8178 25.9227 29.4979 25.7048C29.3805 25.6248 29.2552 25.5394 29.1216 25.4468C27.6318 24.414 25.5541 23.7084 24.7742 23.4436C24.7412 23.4324 24.7106 23.422 24.6824 23.4124C24.5671 23.3731 24.4474 23.356 24.3281 23.3578C23.8469 23.3653 23.3607 23.6832 23.1767 24.1474C23.0836 24.3821 23.0687 24.6525 23.1689 24.9343C23.2687 25.215 23.4805 25.5012 23.8314 25.7749C24.1582 26.03 24.6145 26.2571 25.2603 26.566ZM25.0781 26.6315L25.0779 26.6315C25.0485 26.6314 25.019 26.6321 24.9891 26.6338L24.989 26.6338C24.5683 26.6581 24.1521 26.872 23.9275 27.2348C23.6992 27.6034 23.6806 28.1058 24.0191 28.6776C24.2293 29.0327 24.4336 29.2725 24.623 29.4679C24.697 29.5442 24.7661 29.6113 24.8315 29.6749C24.9376 29.778 25.034 29.8716 25.1258 29.9797C25.4274 30.3346 25.6632 30.5913 26.142 30.665C26.7876 30.7643 27.2324 30.6866 27.5659 30.5136C27.8972 30.3418 28.1063 30.0817 28.288 29.8461C28.395 29.7073 28.3985 29.5407 28.3505 29.3791C28.3031 29.2193 28.2024 29.0517 28.0799 28.8896C27.8343 28.5645 27.4806 28.2352 27.2096 27.9968C27.1074 27.9068 26.9996 27.8021 26.8837 27.6896C26.8514 27.6582 26.8185 27.6263 26.7849 27.5938C26.6321 27.4464 26.4673 27.2915 26.2915 27.1506C25.9417 26.8703 25.5362 26.6353 25.0781 26.6315ZM23.9972 28.7176L23.9033 28.5305L23.8167 28.7211C23.787 28.7866 23.7569 28.8513 23.7275 28.9147C23.6625 29.0547 23.6006 29.188 23.5517 29.3086C23.4816 29.4816 23.4292 29.6486 23.438 29.7906C23.4635 30.2055 23.6904 30.5572 24.037 30.7056C24.3868 30.8553 24.8318 30.7871 25.2714 30.418L25.3472 30.3543L25.2843 30.2779C25.1891 30.1621 25.0857 30.0581 24.9796 29.9554C24.9512 29.928 24.9228 29.9008 24.8942 29.8734C24.8149 29.7974 24.7347 29.7206 24.6529 29.6363C24.4327 29.4096 24.2061 29.1343 23.9972 28.7176Z" fill="white" stroke="black" stroke-width="0.2"/>
<path d="M18.1917 20.8525C18.224 20.4767 18.2994 20.0543 18.4506 19.665C18.3755 19.9511 18.3413 20.1947 18.3039 20.4616C18.283 20.61 18.2612 20.7657 18.2307 20.9399L17.9651 21.0784C17.3768 21.3851 16.9291 21.7007 16.4824 22.0156C16.4532 22.0361 16.424 22.0567 16.3948 22.0772C15.9184 22.4126 15.4308 22.7479 14.7564 23.0797L14.7189 23.0982L14.7057 23.1378C14.4277 23.9734 14.4248 24.4879 14.5198 24.857C14.5671 25.0406 14.6374 25.1836 14.7029 25.3061C14.7147 25.3281 14.726 25.349 14.737 25.3693C14.7889 25.465 14.8317 25.5439 14.859 25.6282C15.0067 26.0837 15.0525 26.4137 15.0962 26.7276C15.099 26.7478 15.1018 26.7679 15.1046 26.788C15.1515 27.1228 15.2033 27.4465 15.3833 27.8788C15.4765 28.1025 15.5883 28.2416 15.716 28.3356C15.8345 28.4227 15.9616 28.4666 16.0766 28.5062C16.0828 28.5084 16.089 28.5105 16.0952 28.5127C16.2177 28.555 16.3308 28.5966 16.4418 28.6803C16.5519 28.7633 16.6658 28.8924 16.7764 29.1168C17.1837 29.9431 18.0197 30.217 18.6857 30.0157C19.0191 29.915 19.3109 29.6947 19.4813 29.3654C19.652 29.0357 19.6961 28.6066 19.553 28.0965C19.2706 27.0897 18.7447 26.5765 18.138 26.3457C17.7579 26.2011 17.3526 26.1699 16.9679 26.1892C17.1198 26.1444 17.2629 26.1189 17.3879 26.105C17.5247 26.0898 17.6393 26.0886 17.7191 26.0912C17.759 26.0924 17.7901 26.0947 17.8109 26.0965C17.8213 26.0974 17.8291 26.0982 17.8341 26.0988L17.8396 26.0995L17.8407 26.0996L17.8407 26.0996L17.8408 26.0996L17.8408 26.0996L18.0323 26.1259L17.943 25.9544C17.8016 25.6826 17.7442 25.4594 17.6951 25.1318C17.6776 25.0149 17.6607 24.8809 17.6411 24.7253C17.6067 24.4521 17.5639 24.1123 17.4944 23.6808C17.3742 22.9351 17.4149 22.5488 17.5326 22.2413C17.5923 22.0852 17.6733 21.9454 17.7716 21.7839C17.7839 21.7636 17.7964 21.7431 17.8092 21.7222C17.8979 21.5771 17.9977 21.4138 18.1004 21.2125L18.226 20.9665C18.2237 20.9796 18.2213 20.9928 18.2189 21.0062C18.1741 21.2508 18.0466 21.5341 17.9162 21.8236C17.9067 21.8447 17.8972 21.8658 17.8877 21.8869C17.8191 22.0397 17.7519 22.1928 17.7019 22.3361C17.6523 22.4784 17.6167 22.619 17.6167 22.7459C17.6167 23.1953 17.7804 24.5548 17.9084 25.3496C17.9831 25.8137 18.1924 26.065 18.4379 26.2727C18.5102 26.3339 18.5829 26.3897 18.6551 26.445C18.8301 26.5793 19.0022 26.7112 19.1592 26.9134L19.2667 27.0518L19.3312 26.8888C19.5952 26.2204 19.8365 25.3213 19.8096 24.6631C19.8145 24.6719 19.8192 24.681 19.8237 24.6901C19.8473 24.7389 19.8556 24.7742 19.8554 24.788C19.849 25.1676 19.7749 25.6105 19.682 26.0565C19.6368 26.2739 19.5873 26.4907 19.5395 26.7002L19.5363 26.7146C19.4876 26.928 19.4407 27.1341 19.4025 27.3232L19.3961 27.3549L19.4094 27.3843C19.6125 27.8326 19.7216 28.1913 19.7719 28.6016L19.7763 28.6367L19.8017 28.6613C20.0557 28.9071 20.3543 28.9612 20.6075 28.9443C20.8585 28.9275 21.0703 28.841 21.1648 28.799L21.2332 28.7686L21.2233 28.6944C21.1368 28.043 21.3863 27.4329 21.7635 26.9082C21.9708 26.62 22.2146 26.3605 22.457 26.138C22.4459 26.1529 22.4348 26.1678 22.4237 26.1828L22.4171 26.1916C22.2502 26.4158 22.0757 26.65 21.9176 26.8875C21.5997 27.365 21.3341 27.8745 21.3341 28.3672C21.3341 28.7283 21.4353 29.0302 21.6468 29.2532C21.8575 29.4754 22.1664 29.6075 22.5591 29.6524C22.8511 29.6858 23.0588 29.6418 23.2157 29.5343C23.3695 29.4289 23.4593 29.2721 23.5358 29.1168C23.5975 28.9913 23.6653 28.8413 23.7396 28.6767C23.7678 28.6143 23.7969 28.5498 23.827 28.4838L23.8463 28.4415L23.8264 28.3995C23.5595 27.8359 23.6482 27.4082 23.8594 27.1118C24.0759 26.8081 24.4286 26.6316 24.7006 26.5946L25.0147 26.552L24.733 26.4067C23.6741 25.8606 23.0356 25.4701 22.9005 24.6874C22.7935 24.0679 23.2935 23.4979 23.9672 23.1962L24.1207 23.1275L23.9871 23.0255C23.5298 22.6763 23.4944 22.1202 23.7967 21.6828C24.0988 21.2457 24.7477 20.9229 25.6639 21.1019C25.9478 21.1574 26.1264 21.2259 26.2956 21.2908C26.3278 21.3031 26.3596 21.3153 26.3918 21.3273L26.5449 21.3843L26.526 21.222C26.496 20.9653 26.5413 20.7533 26.6395 20.5797C26.7382 20.4052 26.8939 20.263 27.0949 20.1531C27.499 19.9322 28.0745 19.8488 28.6789 19.8971C29.3492 19.9505 29.8429 20.0856 30.0644 20.1462L30.0818 20.1509L30.1835 20.1787L30.2059 20.0757C30.2842 19.7152 30.4807 19.2036 30.7662 18.6258C30.8664 18.4229 31.0949 18.1137 31.4314 17.7176C31.7659 17.3238 32.2009 16.8509 32.7079 16.3222C33.7216 15.2649 35.0194 13.9881 36.3668 12.6807C37.002 12.0644 37.6484 11.4411 38.2813 10.8309C40.3307 8.855 42.2379 7.01623 43.1601 5.99527C43.2727 5.87056 43.3341 5.73756 43.3262 5.599C43.3184 5.46105 43.2431 5.34035 43.1315 5.23709C42.9118 5.03383 42.514 4.86361 42.0101 4.72101C40.9948 4.43374 39.4818 4.2412 37.887 4.15971C36.2912 4.07815 34.6059 4.10743 33.244 4.26675C32.5634 4.34637 31.9602 4.45885 31.4881 4.60763C31.252 4.68204 31.0462 4.7663 30.879 4.86158C30.7125 4.95645 30.5787 5.06536 30.4935 5.19159C29.2926 6.97061 28.2434 8.60684 27.3615 9.98206C27.2072 10.2227 27.058 10.4554 26.914 10.6795C25.9448 12.1874 25.2162 13.2971 24.7471 13.8306C24.4631 14.1535 24.1976 14.4846 23.9459 14.7987C23.7774 15.0089 23.6149 15.2115 23.4572 15.3988C23.0578 15.8733 22.6797 16.2615 22.2711 16.4924C21.8578 16.7258 21.2281 16.9221 20.545 17.1201C20.446 17.1488 20.3459 17.1776 20.2453 17.2064C19.6584 17.3748 19.0561 17.5477 18.5554 17.7479C18.0664 17.9434 17.5465 18.2534 16.9788 18.6081C16.8696 18.6763 16.7584 18.7463 16.6453 18.8176C16.1683 19.1181 15.6551 19.4413 15.0912 19.7555C14.5262 20.0704 14.3244 20.3764 14.2293 20.6695C14.1981 20.766 14.1779 20.8641 14.1598 20.9521C14.1521 20.9897 14.1448 21.0254 14.1371 21.0584C14.1105 21.1729 14.0775 21.2712 14.0108 21.3623C13.9087 21.4811 13.8071 21.5773 13.6925 21.6857C13.6344 21.7407 13.5729 21.7989 13.5063 21.8649C13.3105 22.0588 13.0852 22.3065 12.806 22.7089L12.7713 22.759L12.7998 22.8128C12.9592 23.1135 13.3467 23.2571 13.8006 23.2441C14.2611 23.2309 14.8194 23.0582 15.3706 22.6889C15.8724 22.3527 16.1408 22.1654 16.3489 22.0202C16.5712 21.8651 16.7246 21.758 17.0201 21.5689C17.2743 21.4062 17.5536 21.2472 17.7699 21.1286C17.8779 21.0694 17.97 21.0205 18.035 20.9863C18.0674 20.9692 18.0932 20.9559 18.1107 20.9468L18.1308 20.9365L18.1359 20.9339L18.1371 20.9332L18.1374 20.9331L18.1375 20.933L18.1375 20.933L18.187 20.9078L18.1917 20.8525ZM15.446 19.2422L15.4797 19.3523L15.584 19.3035C15.9204 19.1461 16.3008 18.9015 16.7126 18.6368C16.8761 18.5317 17.0446 18.4234 17.2172 18.3162C17.8306 17.935 18.5073 17.5587 19.2398 17.3467C19.5111 17.2681 19.7678 17.1964 20.0101 17.1287C20.5486 16.9782 21.0155 16.8477 21.4111 16.7074C21.9861 16.5036 22.4294 16.2733 22.7405 15.9143L22.8846 15.748L22.6646 15.7488C22.0697 15.751 21.6695 15.6697 21.3127 15.5828C21.3438 15.5816 21.3742 15.5805 21.404 15.5795C21.4247 15.5788 21.4452 15.5782 21.4655 15.5775C21.6435 15.5718 21.8073 15.5666 21.9786 15.5434L22.1945 15.5143L22.0316 15.3696C20.0489 13.6091 18.6634 11.732 16.1687 8.35243C15.4891 7.4317 14.7272 6.39946 13.8484 5.22768C13.6447 4.9561 13.2357 4.73167 12.7117 4.54888C12.1828 4.36434 11.5183 4.21609 10.7823 4.10815C9.31025 3.89223 7.54049 3.83586 5.97349 3.9789C5.18992 4.05043 4.45462 4.17204 3.83132 4.34959C3.20993 4.5266 2.69089 4.76169 2.34795 5.06571C2.00048 5.37375 1.83018 5.75739 1.92669 6.21333C2.02094 6.65861 2.36639 7.15458 2.99881 7.70717C7.48864 11.6303 9.88607 13.6761 11.25 14.8365C11.3456 14.9179 11.4361 14.9949 11.5219 15.0678C12.662 16.0374 12.9652 16.2953 13.2914 16.6448C13.4835 16.8506 13.6791 17.0535 13.8709 17.2524C14.1437 17.5355 14.4089 17.8105 14.6455 18.0749C15.0497 18.5264 15.3485 18.9236 15.446 19.2422ZM30.4112 20.2017L30.4133 20.2587L30.4635 20.2859C30.5291 20.3216 30.5884 20.3552 30.6484 20.3909C29.808 20.1047 29.0726 19.9465 28.4691 19.9294C27.6709 19.9068 27.0751 20.132 26.7985 20.6698C26.7065 20.8486 26.6786 21.0114 26.7076 21.1587C26.7365 21.3055 26.8194 21.4236 26.9244 21.5183C27.1299 21.7035 27.4404 21.8161 27.6809 21.8957C28.5446 22.1814 30.2422 22.7639 30.7887 22.9653C31.0585 23.0647 31.4247 23.0673 31.772 22.9694C32.1206 22.8711 32.4637 22.6677 32.6774 22.3397C32.8961 22.0041 32.8437 21.6383 32.7143 21.3455C32.5857 21.0545 32.3737 20.8161 32.2345 20.7141C31.8798 20.4542 31.2562 20.1136 30.7632 19.9018C30.7105 19.8791 30.6569 19.865 30.6054 19.8689L30.6129 19.9686L30.6054 19.8689C30.5647 19.8719 30.5266 19.8862 30.4951 19.9129C30.4646 19.9387 30.4458 19.9714 30.4341 20.0028C30.4116 20.0628 30.4088 20.1352 30.4112 20.2017ZM30.3386 26.0829L30.3612 26.0952L30.387 26.0951C30.6314 26.0935 31.0713 25.9761 31.4379 25.7597C31.8009 25.5455 32.1347 25.2068 32.0769 24.7492C32.0338 24.4084 32.0025 24.1917 31.8762 23.9912C31.7524 23.7945 31.5414 23.62 31.1715 23.3374C30.7849 23.0419 30.2284 22.8042 29.7118 22.6219C29.322 22.4843 28.9471 22.3757 28.678 22.2978C28.5898 22.2722 28.513 22.25 28.4508 22.2311C28.2004 22.1551 27.733 21.9602 27.2391 21.7541L27.2314 21.7509C26.7444 21.5476 26.235 21.335 25.9055 21.2266C25.7213 21.1661 25.5399 21.1374 25.366 21.1357C24.7589 21.1294 24.2427 21.4508 24.016 21.8757C23.902 22.0893 23.8605 22.3313 23.9226 22.569C23.9847 22.8072 24.148 23.0299 24.4233 23.2101C24.5639 23.3022 24.7216 23.3656 24.9048 23.4255C25.0066 23.4587 25.1209 23.4922 25.2467 23.529C25.3436 23.5574 25.4473 23.5878 25.5572 23.6215C26.0687 23.7787 26.7631 24.0226 27.7511 24.5393C28.2508 24.8006 28.7979 25.1321 29.2703 25.4258C29.4019 25.5076 29.528 25.5867 29.6459 25.6606C29.9483 25.8502 30.1959 26.0054 30.3386 26.0829ZM25.2603 26.566L25.2764 26.5737L25.2941 26.5754C25.7288 26.6161 26.222 26.9343 26.7224 27.3627C27.0808 27.6695 27.4308 28.0217 27.755 28.3481C27.8809 28.4747 28.0028 28.5975 28.1199 28.7122C28.3389 28.9267 28.6956 28.9635 29.0128 28.9269C29.3331 28.8899 29.6547 28.7736 29.8288 28.6338C29.8773 28.5949 29.9307 28.5537 29.9868 28.5104C30.1773 28.3633 30.3996 28.1917 30.5719 28.001C30.7968 27.752 30.9615 27.4438 30.8527 27.083C30.7514 26.7473 30.5657 26.5106 30.2819 26.2717C30.0781 26.1 29.8178 25.9227 29.4979 25.7048C29.3805 25.6248 29.2552 25.5394 29.1216 25.4468C27.6318 24.414 25.5541 23.7084 24.7742 23.4436C24.7412 23.4324 24.7106 23.422 24.6824 23.4124C24.5671 23.3731 24.4474 23.356 24.3281 23.3578C23.8469 23.3653 23.3607 23.6832 23.1767 24.1474C23.0836 24.3821 23.0687 24.6525 23.1689 24.9343C23.2687 25.215 23.4805 25.5012 23.8314 25.7749C24.1582 26.03 24.6145 26.2571 25.2603 26.566ZM25.0781 26.6315L25.0779 26.6315C25.0485 26.6314 25.019 26.6321 24.9891 26.6338L24.989 26.6338C24.5683 26.6581 24.1521 26.872 23.9275 27.2348C23.6992 27.6034 23.6806 28.1058 24.0191 28.6776C24.2293 29.0327 24.4336 29.2725 24.623 29.4679C24.697 29.5442 24.7661 29.6113 24.8315 29.6749C24.9376 29.778 25.034 29.8716 25.1258 29.9797C25.4274 30.3346 25.6632 30.5913 26.142 30.665C26.7876 30.7643 27.2324 30.6866 27.5659 30.5136C27.8972 30.3418 28.1063 30.0817 28.288 29.8461C28.395 29.7073 28.3985 29.5407 28.3505 29.3791C28.3031 29.2193 28.2024 29.0517 28.0799 28.8896C27.8343 28.5645 27.4806 28.2352 27.2096 27.9968C27.1074 27.9068 26.9996 27.8021 26.8837 27.6896C26.8514 27.6582 26.8185 27.6263 26.7849 27.5938C26.6321 27.4464 26.4673 27.2915 26.2915 27.1506C25.9417 26.8703 25.5362 26.6353 25.0781 26.6315ZM23.9972 28.7176L23.9033 28.5305L23.8167 28.7211C23.787 28.7866 23.7569 28.8513 23.7275 28.9147C23.6625 29.0547 23.6006 29.188 23.5517 29.3086C23.4816 29.4816 23.4292 29.6486 23.438 29.7906C23.4635 30.2055 23.6904 30.5572 24.037 30.7056C24.3868 30.8553 24.8318 30.7871 25.2714 30.418L25.3472 30.3543L25.2843 30.2779C25.1891 30.1621 25.0857 30.0581 24.9796 29.9554C24.9512 29.928 24.9228 29.9008 24.8942 29.8734C24.8149 29.7974 24.7347 29.7206 24.6529 29.6363C24.4327 29.4096 24.2061 29.1343 23.9972 28.7176Z" fill="white" stroke="black" stroke-width="0.2"/>
</svg>
