<svg width="30" height="30" viewBox="0 0 30 30" fill="none" xmlns="http://www.w3.org/2000/svg">
<path d="M28.8313 10H24.4934L23.569 4.175C23.3827 3.29367 22.9736 2.48199 22.3852 1.82614C21.7967 1.17029 21.0508 0.694743 20.2267 0.45C19.3988 0.169063 18.5363 0.0174563 17.6667 0H12.357C11.4874 0.0174563 10.6249 0.169063 9.79695 0.45C8.97285 0.694743 8.22697 1.17029 7.6385 1.82614C7.05004 2.48199 6.64095 3.29367 6.45468 4.175L5.53023 10H1.19239C1.0057 9.99881 0.821375 10.0441 0.654443 10.1323C0.487512 10.2205 0.342693 10.349 0.231786 10.5074C0.120879 10.6658 0.0470212 10.8496 0.01623 11.0438C-0.0145612 11.238 -0.00141451 11.4372 0.0545985 11.625L4.51095 27.375C4.73783 28.1359 5.18882 28.8006 5.79839 29.2727C6.40797 29.7447 7.14438 29.9995 7.90063 30H22.123C22.8752 29.9942 23.6063 29.737 24.2111 29.2653C24.816 28.7936 25.2634 28.1318 25.489 27.375L29.9454 11.625C30.0008 11.4392 30.0143 11.2423 29.9847 11.05C29.9552 10.8577 29.8835 10.6753 29.7752 10.5174C29.667 10.3596 29.5253 10.2306 29.3614 10.1407C29.1975 10.0509 29.016 10.0027 28.8313 10ZM7.94804 10L8.80138 4.575C8.89493 4.13206 9.11194 3.72875 9.42452 3.4169C9.73709 3.10505 10.131 2.89892 10.5555 2.825C11.1386 2.63 11.7454 2.5225 12.357 2.5H17.6667C18.2854 2.52 18.8993 2.63 19.4919 2.825C19.9164 2.89892 20.3103 3.10505 20.6229 3.4169C20.9354 3.72875 21.1524 4.13206 21.246 4.575L22.0756 10H7.85322H7.94804Z" fill="white"/>
</svg>
